<svg xmlns="http://www.w3.org/2000/svg" xmlns:xlink="http://www.w3.org/1999/xlink" width="50" height="50" viewBox="0 0 50 50">
  <defs>
    <linearGradient id="linear-gradient" x1="0.5" x2="0.5" y2="1" gradientUnits="objectBoundingBox">
      <stop offset="0" stop-color="#00e1d0"/>
      <stop offset="1" stop-color="#0698ab"/>
    </linearGradient>
    <clipPath id="clip-TV_topfeature_8k_3">
      <rect width="50" height="50"/>
    </clipPath>
  </defs>
  <g id="TV_topfeature_8k_3" data-name="TV_topfeature_8k – 3" clip-path="url(#clip-TV_topfeature_8k_3)">
    <g id="Group_2393" data-name="Group 2393" transform="translate(-52.363 -82.046)">
      <g id="Group_1925" data-name="Group 1925" transform="translate(52.363 82.046)">
        <path id="Path_11178" data-name="Path 11178" d="M109.472,82.046H86.725a1.19,1.19,0,1,0,0,2.381h22.747a3.313,3.313,0,0,1,3.309,3.31v22.746a1.191,1.191,0,1,0,2.381,0V87.736A5.7,5.7,0,0,0,109.472,82.046Z" transform="translate(-65.162 -82.046)" stroke="rgba(0,0,0,0)" stroke-width="1" fill="url(#linear-gradient)"/>
        <path id="Path_11179" data-name="Path 11179" d="M67.828,136.641a1.188,1.188,0,0,0,1.578-.586L71.266,132h3.562a1.191,1.191,0,0,0,0-2.381h-2.47l1.757-3.83,4.743,10.306a1.19,1.19,0,0,0,2.162-.995l-5.825-12.66a1.19,1.19,0,0,0-1.082-.693h0a1.188,1.188,0,0,0-1.081.694l-5.79,12.625A1.189,1.189,0,0,0,67.828,136.641Z" transform="translate(-58.062 -97.363)" stroke="rgba(0,0,0,0)" stroke-width="1" fill="url(#linear-gradient)"/>
        <path id="Path_11180" data-name="Path 11180" d="M94.509,135.117V121.7a1.191,1.191,0,0,0-2.381,0v13.421a1.191,1.191,0,0,0,2.381,0Z" transform="translate(-67.706 -96.885)" stroke="rgba(0,0,0,0)" stroke-width="1" fill="url(#linear-gradient)"/>
        <path id="Path_11181" data-name="Path 11181" d="M74.334,142.463H58.054a3.313,3.313,0,0,1-3.31-3.309V116.407a1.191,1.191,0,0,0-2.381,0v22.747a5.7,5.7,0,0,0,5.691,5.69H74.34l.007,3.272,7.718-4.479-7.737-4.445Z" transform="translate(-52.363 -94.844)" stroke="rgba(0,0,0,0)" stroke-width="1" fill="url(#linear-gradient)"/>
        <rect id="Rectangle_1408" data-name="Rectangle 1408" width="3.685" height="3.684" transform="translate(31.985 32.284)" stroke="rgba(0,0,0,0)" stroke-width="1" fill="url(#linear-gradient)"/>
        <rect id="Rectangle_1409" data-name="Rectangle 1409" width="3.684" height="3.684" transform="translate(36.676 32.284)" stroke="rgba(0,0,0,0)" stroke-width="1" fill="url(#linear-gradient)"/>
        <rect id="Rectangle_1410" data-name="Rectangle 1410" width="3.685" height="3.684" transform="translate(41.367 32.284)" stroke="rgba(0,0,0,0)" stroke-width="1" fill="url(#linear-gradient)"/>
        <rect id="Rectangle_1411" data-name="Rectangle 1411" width="3.684" height="3.684" transform="translate(46.058 32.284)" stroke="rgba(0,0,0,0)" stroke-width="1" fill="url(#linear-gradient)"/>
        <rect id="Rectangle_1412" data-name="Rectangle 1412" width="3.684" height="3.685" transform="translate(46.058 36.975)" stroke="rgba(0,0,0,0)" stroke-width="1" fill="url(#linear-gradient)"/>
        <rect id="Rectangle_1413" data-name="Rectangle 1413" width="3.684" height="3.684" transform="translate(46.058 41.666)" stroke="rgba(0,0,0,0)" stroke-width="1" fill="url(#linear-gradient)"/>
        <rect id="Rectangle_1414" data-name="Rectangle 1414" width="3.684" height="3.684" transform="translate(46.058 46.357)" stroke="rgba(0,0,0,0)" stroke-width="1" fill="url(#linear-gradient)"/>
        <rect id="Rectangle_1415" data-name="Rectangle 1415" width="3.685" height="3.685" transform="translate(41.367 36.975)" stroke="rgba(0,0,0,0)" stroke-width="1" fill="url(#linear-gradient)"/>
        <rect id="Rectangle_1416" data-name="Rectangle 1416" width="3.685" height="3.684" transform="translate(41.367 41.666)" stroke="rgba(0,0,0,0)" stroke-width="1" fill="url(#linear-gradient)"/>
        <rect id="Rectangle_1417" data-name="Rectangle 1417" width="3.685" height="3.684" transform="translate(41.367 46.357)" stroke="rgba(0,0,0,0)" stroke-width="1" fill="url(#linear-gradient)"/>
        <rect id="Rectangle_1418" data-name="Rectangle 1418" width="3.684" height="3.685" transform="translate(36.676 36.975)" stroke="rgba(0,0,0,0)" stroke-width="1" fill="url(#linear-gradient)"/>
        <rect id="Rectangle_1419" data-name="Rectangle 1419" width="3.684" height="3.684" transform="translate(36.676 41.666)" stroke="rgba(0,0,0,0)" stroke-width="1" fill="url(#linear-gradient)"/>
        <rect id="Rectangle_1420" data-name="Rectangle 1420" width="3.684" height="3.684" transform="translate(36.676 46.357)" stroke="rgba(0,0,0,0)" stroke-width="1" fill="url(#linear-gradient)"/>
        <rect id="Rectangle_1421" data-name="Rectangle 1421" width="3.685" height="3.685" transform="translate(31.985 36.975)" stroke="rgba(0,0,0,0)" stroke-width="1" fill="url(#linear-gradient)"/>
        <rect id="Rectangle_1422" data-name="Rectangle 1422" width="3.685" height="3.684" transform="translate(31.985 41.666)" stroke="rgba(0,0,0,0)" stroke-width="1" fill="url(#linear-gradient)"/>
        <rect id="Rectangle_1423" data-name="Rectangle 1423" width="3.685" height="3.684" transform="translate(31.985 46.357)" stroke="rgba(0,0,0,0)" stroke-width="1" fill="url(#linear-gradient)"/>
        <rect id="Rectangle_1424" data-name="Rectangle 1424" width="8.375" height="8.376" transform="translate(0.18 0.008)" stroke="rgba(0,0,0,0)" stroke-width="1" fill="url(#linear-gradient)"/>
        <rect id="Rectangle_1425" data-name="Rectangle 1425" width="8.375" height="8.376" transform="translate(9.562 0.008)" stroke="rgba(0,0,0,0)" stroke-width="1" fill="url(#linear-gradient)"/>
        <rect id="Rectangle_1426" data-name="Rectangle 1426" width="8.375" height="8.376" transform="translate(0.18 9.39)" stroke="rgba(0,0,0,0)" stroke-width="1" fill="url(#linear-gradient)"/>
        <rect id="Rectangle_1427" data-name="Rectangle 1427" width="8.375" height="8.376" transform="translate(9.562 9.39)" stroke="rgba(0,0,0,0)" stroke-width="1" fill="url(#linear-gradient)"/>
      </g>
      <text id="_8K" data-name="8K" transform="translate(88.67 97.896)" fill="#19bdb8" font-size="11" font-family="Helvetica"><tspan x="-6.727" y="0">8K</tspan></text>
    </g>
  </g>
</svg>
