<svg xmlns="http://www.w3.org/2000/svg" xmlns:xlink="http://www.w3.org/1999/xlink" width="68" height="50" viewBox="0 0 68 50">
  <defs>
    <linearGradient id="linear-gradient" x1="0.5" x2="0.5" y2="1" gradientUnits="objectBoundingBox">
      <stop offset="0" stop-color="#00e1d0"/>
      <stop offset="1" stop-color="#0698ab"/>
    </linearGradient>
    <clipPath id="clip-TV_topfeature_8k_1">
      <rect width="68" height="50"/>
    </clipPath>
  </defs>
  <g id="TV_topfeature_8k_1" data-name="TV_topfeature_8k – 1" clip-path="url(#clip-TV_topfeature_8k_1)">
    <g id="Group_2587" data-name="Group 2587" transform="translate(-481.524 -5.187)">
      <path id="Path_11435" data-name="Path 11435" d="M531.179,27.611h5.747a.913.913,0,0,0,.913-.907l.074-7.32h.077l9.443,8.024a1.2,1.2,0,0,0,.769.282h8.2a.412.412,0,0,0,.412-.412.406.406,0,0,0-.154-.322l-11.714-9.35L555.6,9.274a.412.412,0,0,0-.254-.736h-7.633a1.5,1.5,0,0,0-.989.368l-8.729,7.529h-.077l-.074-7.061a.789.789,0,0,0-.737-.838h0a.66.66,0,0,0-.1,0h-5.8a.86.86,0,0,0-.861.858V23.725l-.074,2.976A.913.913,0,0,0,531.179,27.611Z" transform="translate(-8.533 -0.061)" stroke="rgba(0,0,0,0)" stroke-width="1" fill="url(#linear-gradient)"/>
      <path id="Path_11436" data-name="Path 11436" d="M502.126,27.522h20.194a1.81,1.81,0,0,0,1.814-1.807v-6.1a2.265,2.265,0,0,0-1.46-2.115,2.266,2.266,0,0,0,1.46-2.115V10.347a1.81,1.81,0,0,0-1.81-1.811H502.131a1.81,1.81,0,0,0-1.812,1.809v5.044a2.268,2.268,0,0,0,1.459,2.115,2.267,2.267,0,0,0-1.46,2.115v6.095A1.812,1.812,0,0,0,502.126,27.522Zm5.244-14.61a1.294,1.294,0,0,1,1.339-1.237h6.873a1.446,1.446,0,0,1,1.5,1.237v1.6a1.449,1.449,0,0,1-1.5,1.237H508.71a1.3,1.3,0,0,1-1.34-1.237Zm0,7.712a1.294,1.294,0,0,1,1.339-1.237H515.9a1.159,1.159,0,0,1,1.184,1.134v.1l0,2.377a1.161,1.161,0,0,1-1.081,1.237H508.71A1.3,1.3,0,0,1,507.371,23Z" transform="translate(-3.29 -0.061)" stroke="rgba(0,0,0,0)" stroke-width="1" fill="url(#linear-gradient)"/>
      <path id="Path_11437" data-name="Path 11437" d="M544.43,31.8l-4.8,8.346,3.526-.008v5.567a3.574,3.574,0,0,1-3.569,3.57h-51.93a3.575,3.575,0,0,1-3.569-3.57V14.324a3.573,3.573,0,0,1,3.569-3.569h5.857a1.284,1.284,0,1,0,0-2.568h-5.857a6.144,6.144,0,0,0-6.137,6.137V45.708a6.146,6.146,0,0,0,6.137,6.138h51.926a6.146,6.146,0,0,0,6.137-6.138V40.134l3.536-.008Z" transform="translate(0 0)" stroke="rgba(0,0,0,0)" stroke-width="1" fill="url(#linear-gradient)"/>
    </g>
  </g>
</svg>
