<svg xmlns="http://www.w3.org/2000/svg" width="35" height="34" viewBox="0 0 35 34">
  <g id="Group_2275" data-name="Group 2275" transform="translate(-1078 -132)">
    <g id="construction-24px" transform="translate(1078 131.5)">
      <g id="Group_2281" data-name="Group 2281">
        <rect id="Rectangle_1533" data-name="Rectangle 1533" width="35" height="34" transform="translate(0 0.5)" fill="none"/>
      </g>
      <g id="Group_2283" data-name="Group 2283" transform="translate(3.019 3.755)">
        <g id="Group_2282" data-name="Group 2282">
          <rect id="Rectangle_1534" data-name="Rectangle 1534" width="4.313" height="12.19" transform="translate(16.794 18.054) rotate(-45)"/>
          <path id="Path_11270" data-name="Path 11270" d="M24.237,13.232A5.037,5.037,0,0,0,29.269,8.2a4.967,4.967,0,0,0-.589-2.3L24.8,9.782,22.656,7.64l3.881-3.881a4.967,4.967,0,0,0-2.3-.589A5.037,5.037,0,0,0,19.206,8.2a4.9,4.9,0,0,0,.3,1.667l-2.659,2.659L14.29,9.969l1.021-1.021L13.284,6.921l3.047-3.047a4.312,4.312,0,0,0-6.095,0L5.148,8.963,7.174,10.99H3.121L2.1,12.01,7.189,17.1,8.21,16.079V12.01l2.027,2.027,1.021-1.021,2.559,2.559L3.164,26.227l3.047,3.048L22.57,12.93A4.9,4.9,0,0,0,24.237,13.232Z" transform="translate(-2.1 -2.612)"/>
        </g>
      </g>
    </g>
  </g>
</svg>
