<svg id="contact_support-24px" xmlns="http://www.w3.org/2000/svg" width="38.123" height="38.123" viewBox="0 0 38.123 38.123">
  <path id="Path_152" data-name="Path 152" d="M0,0H38.123V38.123H0Z" fill="none"/>
  <path id="Path_153" data-name="Path 153" d="M16.3,36.883V31.165A15.093,15.093,0,1,1,32.181,16.09c0,7.863-5.464,15.773-13.613,19.7ZM17.09,4.177A11.913,11.913,0,1,0,17.09,28h2.383v3.653C25.255,28,29,22,29,16.09A11.918,11.918,0,0,0,17.09,4.177ZM15.5,22.444h3.177v3.177H15.5Zm3.177-2.383H15.5c0-5.162,4.765-4.765,4.765-7.942a3.177,3.177,0,1,0-6.354,0H10.737a6.354,6.354,0,0,1,12.708,0C23.444,16.09,18.679,16.487,18.679,20.062Z" transform="translate(1.177 0.588)"/>
</svg>
