<svg xmlns="http://www.w3.org/2000/svg" xmlns:xlink="http://www.w3.org/1999/xlink" width="60" height="60" viewBox="0 0 60 60">
  <defs>
    <linearGradient id="linear-gradient" x1="-11.205" y1="-5.705" x2="-11.151" y2="-5.356" gradientUnits="objectBoundingBox">
      <stop offset="0" stop-color="#0698ab"/>
      <stop offset="1" stop-color="#00e1d0"/>
    </linearGradient>
    <linearGradient id="linear-gradient-2" x1="-11.204" y1="-4.585" x2="-11.151" y2="-4.236" xlink:href="#linear-gradient"/>
    <linearGradient id="linear-gradient-3" x1="-11.205" y1="-3.468" x2="-11.151" y2="-3.119" xlink:href="#linear-gradient"/>
    <linearGradient id="linear-gradient-4" x1="0.5" y1="0" x2="0.5" y2="1" xlink:href="#linear-gradient"/>
    <clipPath id="clip-Soundbar_icon_movie_3">
      <rect width="60" height="60"/>
    </clipPath>
  </defs>
  <g id="Soundbar_icon_movie_3" data-name="Soundbar_icon_movie – 3" clip-path="url(#clip-Soundbar_icon_movie_3)">
    <g id="Group_2605" data-name="Group 2605" transform="translate(-407.539 -474.929)">
      <g id="Group_769" data-name="Group 769">
        <g id="interface">
          <g id="Group_2608" data-name="Group 2608">
            <path id="Path_11482" data-name="Path 11482" d="M418.616,515.591H423.6l.124.35a4.335,4.335,0,0,0,8.175,0l.124-.352h24.441V513.4h-24.44l-.124-.352a4.335,4.335,0,0,0-8.175,0l-.124.352h-4.987Zm9.2,1.053a2.147,2.147,0,1,1,2.151-2.148,2.147,2.147,0,0,1-2.151,2.148Z" fill="url(#linear-gradient)"/>
          </g>
          <g id="Group_2609" data-name="Group 2609">
            <path id="Path_11483" data-name="Path 11483" d="M418.616,505.866h24.436l.124.351a4.335,4.335,0,0,0,8.175,0l.124-.351h4.992v-2.192h-4.986l-.124-.352a4.335,4.335,0,0,0-8.175,0l-.124.352H418.616Zm28.647,1.053a2.148,2.148,0,1,1,0-4.3h0a2.148,2.148,0,0,1,0,4.3Z" fill="url(#linear-gradient-2)"/>
          </g>
          <g id="Group_2610" data-name="Group 2610">
            <path id="Path_11484" data-name="Path 11484" d="M418.616,496.14H423.6l.124.35a4.335,4.335,0,0,0,8.175,0l.124-.351h24.442v-2.188h-24.44l-.124-.352a4.335,4.335,0,0,0-8.175,0l-.124.352h-4.987Zm9.2,1.054a2.147,2.147,0,0,1,0-4.294h0a2.147,2.147,0,0,1,0,4.294Z" fill="url(#linear-gradient-3)"/>
          </g>
        </g>
      </g>
      <path id="Path_11485" data-name="Path 11485" d="M467.539,531.614h-60V477.929h60ZM409.7,529.456h55.684V480.087H409.7Z" fill="url(#linear-gradient-4)"/>
    </g>
  </g>
</svg>
