<svg xmlns="http://www.w3.org/2000/svg" xmlns:xlink="http://www.w3.org/1999/xlink" width="70" height="60" viewBox="0 0 70 60">
  <defs>
    <linearGradient id="linear-gradient" x1="0.5" x2="0.5" y2="1" gradientUnits="objectBoundingBox">
      <stop offset="0" stop-color="#00aaa6"/>
      <stop offset="0.877" stop-color="#39d5ce"/>
      <stop offset="1" stop-color="#6debe6"/>
    </linearGradient>
    <clipPath id="clip-Soundbar_icon_movie_6">
      <rect width="70" height="60"/>
    </clipPath>
  </defs>
  <g id="Soundbar_icon_movie_6" data-name="Soundbar_icon_movie – 6" clip-path="url(#clip-Soundbar_icon_movie_6)">
    <g id="Group_2627" data-name="Group 2627" transform="translate(-1046 -12390)">
      <g id="Group_2450" data-name="Group 2450" transform="translate(1046 12396.999)">
        <path id="Path_10976" data-name="Path 10976" d="M-115.579,297.909h0a17.448,17.448,0,0,1,14.686-4.6,17.4,17.4,0,0,1,9.826,4.741l.055.053a1.669,1.669,0,0,0,1.081.55h.034a.9.9,0,0,0,.647-.327c.6-.665.107-1.279-.319-1.682a19.661,19.661,0,0,0-13.714-5.584h-.15a19.772,19.772,0,0,0-13.587,5.378,1.95,1.95,0,0,0-.794,1.232.918.918,0,0,0,.3.673C-116.908,298.953-116.226,298.5-115.579,297.909Z" transform="translate(137.957 -288.291)" fill="url(#linear-gradient)"/>
        <path id="Path_10977" data-name="Path 10977" d="M-117.883,312.105l.075-.088-.062.1h0a.531.531,0,0,0,.281.067c.068,0,.138-.007.207-.014s.123-.011.18-.011l27.67-.006a1.875,1.875,0,0,0,.833-.042c.229-.119.765-.433.8-.8a1.58,1.58,0,0,0-.519-1.056,1.081,1.081,0,0,0-.779-.163h-.112c-9.237-.006-18.606-.006-27.846,0h-.125a1.236,1.236,0,0,0-.835.164,1.537,1.537,0,0,0-.536,1.074C-118.631,311.636-118.217,311.9-117.883,312.105Z" transform="translate(137.832 -285.487)" fill="url(#linear-gradient)"/>
        <path id="Path_10978" data-name="Path 10978" d="M-95.7,301.632a.991.991,0,0,0,.729-.357.981.981,0,0,0-.143-1.511,12.727,12.727,0,0,0-8.946-3.659,12.716,12.716,0,0,0-8.767,3.513,1.482,1.482,0,0,0-.577,1.033.88.88,0,0,0,.326.651c.62.561,1.169.213,1.643-.159a16.694,16.694,0,0,1,2.482-1.759,10.605,10.605,0,0,1,12.119,1.581c.063.059.125.116.187.176l.093.087h0A1.282,1.282,0,0,0-95.7,301.632Z" transform="translate(138.606 -287.547)" fill="url(#linear-gradient)"/>
        <path id="Path_10979" data-name="Path 10979" d="M-109.111,302.88h0a1.387,1.387,0,0,0-.538.96.9.9,0,0,0,.307.667,1.074,1.074,0,0,0,1.588-.079,4.531,4.531,0,0,1,6.34.033,1.4,1.4,0,0,0,.864.39.951.951,0,0,0,.715-.368c.307-.344.519-.9-.219-1.564a6.319,6.319,0,0,0-3.844-1.778A7.122,7.122,0,0,0-109.111,302.88Z" transform="translate(139.159 -286.808)" fill="url(#linear-gradient)"/>
        <path id="Path_10980" data-name="Path 10980" d="M-66.256,331.631h0c.006-1.106.011-2.359,0-3.557a5.88,5.88,0,0,0-.321-1.8c-.55-1.592-1.154-3.245-1.847-5.048l-.357-.933c-.594-1.551-1.208-3.155-1.9-4.685a3.459,3.459,0,0,0-3-2.134c-1.443-.083-2.914-.1-4.366-.11-.6,0-1.2-.01-1.8-.022h-.916V290.233a1.915,1.915,0,0,0-.336-1.378.833.833,0,0,0-.649-.2c-.682.018-.912.414-.912,1.57q-.007,10.376-.007,20.753c0,1.728,0,3.519.02,5.309a1.1,1.1,0,0,0-.006.169.842.842,0,0,0,.29.59.816.816,0,0,0,.616.2.78.78,0,0,0,.135,0,.893.893,0,0,0,.846-.933c.014-.244.009-.482.006-.711v-.056c0-.109,0-.221,0-.338.6,0,1.186,0,1.767.009,1.252.011,2.544.02,3.823-.023a3.167,3.167,0,0,1,3.361,2.268c.419,1.1.832,2.249,1.2,3.258l.145.4q.212.585.423,1.167c.079.218.156.437.232.655l.132.378h-62.253l.2-.556c.127-.366.251-.721.385-1.072.154-.407.306-.816.458-1.222l.011-.032c.437-1.169.887-2.377,1.381-3.56a2.268,2.268,0,0,1,1.936-1.641c1.557-.039,3.077-.034,4.69-.024h.041c.661,0,1.327.007,2,.007a8.341,8.341,0,0,0,.015,1.255l.006.045a.855.855,0,0,0,.967.716h.08a.8.8,0,0,0,.784-.81c.022-.291.022-.579.022-.858q.007-12.575.007-25.149v-.184c0-.2,0-.438-.016-.653,0-.046,0-.075,0-.106a.876.876,0,0,0-.874-.826h-.042c-.548,0-.859.3-.949.926a4.747,4.747,0,0,0-.011.676v23.08c-.644,0-1.278,0-1.9.007-1.352.009-2.748.016-4.135-.017a4.314,4.314,0,0,0-4.188,2.47,14.6,14.6,0,0,0-.749,1.687c-1.111,2.9-2.236,5.875-3.346,8.837a2.875,2.875,0,0,0-.184.974l0,.725c-.009,2.892-.018,6.169,0,9.3a4.147,4.147,0,0,0,1.607,3.28,5.065,5.065,0,0,0,3.45,1.033h42.987q1.962,0,3.923-.006l1.907,0c1.308,0,2.63-.006,3.956-.006,2.466,0,4.506.008,6.412.028.089.006.181.009.275.009s.162,0,.246-.007a4.582,4.582,0,0,0,3.19-1.517,4.582,4.582,0,0,0,1.182-3.327C-66.273,335.065-66.264,333.318-66.256,331.631Zm-66.759,7.072a2.573,2.573,0,0,1-.469-1.936c0-1.914.015-3.846.026-5.775l.015-2.767a3.138,3.138,0,0,1,.723-2.341,3.263,3.263,0,0,1,2.389-.7l59.223.009c2.141,0,2.977.84,2.983,3v8.654A2.482,2.482,0,0,1-68.253,338l-.015.041a2.571,2.571,0,0,1-.174.383c-.017.031-.036.06-.054.088l-.022.033c-.016.025-.031.052-.046.077s-.044.073-.069.109c-.011.014-.024.026-.038.04s-.031.031-.045.048c-.031.037-.064.07-.1.106l-.032.032c-.073.073-.148.147-.227.212a.489.489,0,0,0-.059.053.357.357,0,0,1-.056.036.774.774,0,0,0-.069.042,2.387,2.387,0,0,1-.218.133,2.211,2.211,0,0,1-.271.124l-.049.02c-.034.014-.068.026-.106.039a2.493,2.493,0,0,1-.383.089.146.146,0,0,0-.044.013h-.036a2.616,2.616,0,0,1-.687.008l-59.547,0a2.475,2.475,0,0,1-.731-.006A2.56,2.56,0,0,1-133.016,338.7Z" transform="translate(135.37 -288.646)" fill="url(#linear-gradient)"/>
        <path id="Path_10981" data-name="Path 10981" d="M-97.677,328.008q8.4-.009,16.792-.009a1.57,1.57,0,0,0,1.163-.351.944.944,0,0,0,.244-.711c-.017-.675-.469-1-1.384-1H-89.18l-.114,0h-2.762q-2.877,0-5.752,0a1.323,1.323,0,0,0-1.036.365.946.946,0,0,0-.2.779C-98.932,327.938-98.28,328.008-97.677,328.008Z" transform="translate(140.72 -283.152)" fill="url(#linear-gradient)"/>
        <path id="Path_10982" data-name="Path 10982" d="M-127.013,330.117h0a2.808,2.808,0,0,0,1.994-.824,2.808,2.808,0,0,0,.83-2,2.833,2.833,0,0,0-2.8-2.826h-.024a2.807,2.807,0,0,0-1.993.823,2.809,2.809,0,0,0-.831,2,2.812,2.812,0,0,0,.825,2A2.8,2.8,0,0,0-127.013,330.117Zm0-3.724a.891.891,0,0,1,.869.751l.014.045.014.013v.065l0,.028-.008.162-.026.017-.01.042a.884.884,0,0,1-.855.68.9.9,0,0,1-.9-.9A.9.9,0,0,1-127.008,326.393Z" transform="translate(136.186 -283.368)" fill="url(#linear-gradient)"/>
        <path id="Path_10983" data-name="Path 10983" d="M-119.819,330.037h.009a2.845,2.845,0,0,0,2.841-2.835,2.89,2.89,0,0,0-2.793-2.846h-.048a2.845,2.845,0,0,0-2.841,2.832A2.845,2.845,0,0,0-119.819,330.037Zm.914-2.825-.008.163-.028.022-.009.037a.883.883,0,0,1-.855.679.9.9,0,0,1-.9-.9.9.9,0,0,1,.9-.9.891.891,0,0,1,.869.753l.02.049.008.007v.061Z" transform="translate(137.244 -283.385)" fill="url(#linear-gradient)"/>
        <path id="Path_10984" data-name="Path 10984" d="M-112.63,330.041h.039a2.837,2.837,0,0,0,2.805-2.811.685.685,0,0,0,0-.069,2.823,2.823,0,0,0-.859-2,2.827,2.827,0,0,0-1.983-.807h-.039a2.825,2.825,0,0,0-2,.859,2.826,2.826,0,0,0-.805,2.02,2.828,2.828,0,0,0,.859,2A2.822,2.822,0,0,0-112.63,330.041Zm.974-2.9v.073l0,.026-.008.163-.025.018-.011.041a.882.882,0,0,1-.855.679.9.9,0,0,1-.9-.9.9.9,0,0,1,.9-.9.893.893,0,0,1,.87.753Z" transform="translate(138.301 -283.385)" fill="url(#linear-gradient)"/>
      </g>
    </g>
  </g>
</svg>
