<svg xmlns="http://www.w3.org/2000/svg" xmlns:xlink="http://www.w3.org/1999/xlink" width="60" height="60" viewBox="0 0 60 60">
  <defs>
    <linearGradient id="linear-gradient" x1="0.5" y1="3.181" x2="3.068" y2="1" gradientUnits="objectBoundingBox">
      <stop offset="0" stop-color="#0698ab"/>
      <stop offset="1" stop-color="#00e1d0"/>
    </linearGradient>
    <clipPath id="clip-Soundbar_icon_movie_4">
      <rect width="60" height="60"/>
    </clipPath>
  </defs>
  <g id="Soundbar_icon_movie_4" data-name="Soundbar_icon_movie – 4" clip-path="url(#clip-Soundbar_icon_movie_4)">
    <g id="Group_1625" data-name="Group 1625" transform="translate(180.712 -332.385)">
      <path id="Path_10971" data-name="Path 10971" d="M-127.615,357.262a4.825,4.825,0,0,0-4.814-4.682h-.149a5.124,5.124,0,0,0-2.749.814,4.832,4.832,0,0,0-4.718-3.711h-.13a5.051,5.051,0,0,0-3.169,1.115,4.977,4.977,0,0,0-4.341-2.566c-.025,0-.048,0-.073,0a5.05,5.05,0,0,0-2.64.737v-8.2a4.936,4.936,0,0,0-5.211-4.667,4.941,4.941,0,0,0-4.667,4.679V355.24a.736.736,0,0,0,.044.2.865.865,0,0,0-.045.227v9.423l-4.82-4.96a5.359,5.359,0,0,0-7.068-.451,4.714,4.714,0,0,0-.966,6.53l9.933,13.746a12.455,12.455,0,0,0,7.136,4.758v6.245a1.143,1.143,0,0,0,.382.788,1.112,1.112,0,0,0,.827.286,1.146,1.146,0,0,0,1.074-1.086v-6.709a1.625,1.625,0,0,0-1.311-1.549,10.177,10.177,0,0,1-6.23-3.978l-9.934-13.746a2.6,2.6,0,0,1,.534-3.595,3,3,0,0,1,3.954.25l5.841,6.012a1.746,1.746,0,0,0,1.846.408,1.615,1.615,0,0,0,1.085-1.507V355.649a.8.8,0,0,0-.044-.2.855.855,0,0,0,.045-.227V340.794a2.642,2.642,0,0,1,.875-1.839,2.6,2.6,0,0,1,1.918-.68,2.649,2.649,0,0,1,2.518,2.507v19.594a1.136,1.136,0,0,0,.383.788,1.089,1.089,0,0,0,.826.285,1.146,1.146,0,0,0,1.074-1.085V352.93a2.642,2.642,0,0,1,.875-1.839,2.62,2.62,0,0,1,1.918-.68,2.65,2.65,0,0,1,2.518,2.507v7.457a1.136,1.136,0,0,0,.383.788,1.085,1.085,0,0,0,.826.285,1.146,1.146,0,0,0,1.074-1.085v-5.98a2.641,2.641,0,0,1,.875-1.839,2.61,2.61,0,0,1,1.918-.68,2.651,2.651,0,0,1,2.518,2.507v6.006a1.132,1.132,0,0,0,.382.787,1.088,1.088,0,0,0,.827.286,1.145,1.145,0,0,0,1.074-1.085V357.28a2.642,2.642,0,0,1,.876-1.837,2.584,2.584,0,0,1,1.918-.68,2.649,2.649,0,0,1,2.518,2.506v16.57a23.64,23.64,0,0,1-1.82,8.789l-.295.708a4.069,4.069,0,0,0-.312,1.566v6.055a1.146,1.146,0,0,0,1.142,1.076c.022,0,.045,0,.068,0a1.147,1.147,0,0,0,1.073-1.087V384.9a1.96,1.96,0,0,1,.151-.76l.295-.71a25.777,25.777,0,0,0,1.982-9.574Z" transform="translate(0 0.352)" stroke="rgba(0,0,0,0)" stroke-width="1" fill="url(#linear-gradient)"/>
      <path id="Path_10972" data-name="Path 10972" d="M-150.9,337.363a7.429,7.429,0,0,1,1.645,4.658,7.324,7.324,0,0,1-.909,3.543,1.072,1.072,0,0,0,.438,1.449l.056.028a1.092,1.092,0,0,0,.528.119,1.153,1.153,0,0,0,1-.586,9.441,9.441,0,0,0,1.168-4.555,9.557,9.557,0,0,0-2.115-5.985,1.18,1.18,0,0,0-1.584-.214,1.055,1.055,0,0,0-.445.681,1.049,1.049,0,0,0,.168.794Zm.171-.138Z" transform="translate(2.174 0.306)" stroke="rgba(0,0,0,0)" stroke-width="1" fill="url(#linear-gradient)"/>
      <path id="Path_10973" data-name="Path 10973" d="M-164.323,347.466h.011l0-.219.01.219a1.188,1.188,0,0,0,.514-.117,1.072,1.072,0,0,0,.528-1.42l-.031-.061a7.327,7.327,0,0,1-.908-3.534,8.007,8.007,0,0,1,7.993-7.764c.07,0,.141,0,.212,0h.007a8.634,8.634,0,0,1,3.935.953,1.171,1.171,0,0,0,1.544-.431,1.056,1.056,0,0,0,.1-.811,1.065,1.065,0,0,0-.5-.646l-.06-.032a11,11,0,0,0-5.015-1.216h-.014a10.248,10.248,0,0,0-10.5,9.937,9.438,9.438,0,0,0,1.169,4.557A1.151,1.151,0,0,0-164.323,347.466Z" transform="translate(0.716 0)" stroke="rgba(0,0,0,0)" stroke-width="1" fill="url(#linear-gradient)"/>
      <path id="Path_10974" data-name="Path 10974" d="M-169.005,349.227a1.162,1.162,0,0,0,.492-.1,1.073,1.073,0,0,0,.579-.581,1.073,1.073,0,0,0-.007-.833l-.023-.05a12.459,12.459,0,0,1,0-11.156,1.064,1.064,0,0,0,.051-.819,1.059,1.059,0,0,0-.534-.612l-.06-.028a1.17,1.17,0,0,0-1.518.515,14.568,14.568,0,0,0,0,13.05A1.14,1.14,0,0,0-169.005,349.227Z" transform="translate(0.234 0.242)" fill="#04b4b9" stroke="rgba(0,0,0,0)" stroke-width="1"/>
      <path id="Path_10975" data-name="Path 10975" d="M-145.534,336.507a12.459,12.459,0,0,1,0,11.156,1.074,1.074,0,0,0,.493,1.435l.053.025a1.065,1.065,0,0,0,.5.1,1.143,1.143,0,0,0,1.017-.619,14.571,14.571,0,0,0,0-13.051,1.167,1.167,0,0,0-1.507-.514,1.073,1.073,0,0,0-.578,1.4Zm.2-.1Z" transform="translate(2.694 0.242)" stroke="rgba(0,0,0,0)" stroke-width="1" fill="url(#linear-gradient)"/>
    </g>
  </g>
</svg>
