<svg xmlns="http://www.w3.org/2000/svg" xmlns:xlink="http://www.w3.org/1999/xlink" width="248" height="80" viewBox="0 0 248 80">
  <defs>
    <linearGradient id="linear-gradient" x1="0.5" x2="0.5" y2="1" gradientUnits="objectBoundingBox">
      <stop offset="0" stop-color="#00e1d0"/>
      <stop offset="1" stop-color="#0698ab"/>
    </linearGradient>
    <clipPath id="clip-TV_section_array">
      <rect width="248" height="80"/>
    </clipPath>
  </defs>
  <g id="TV_section_array" clip-path="url(#clip-TV_section_array)">
    <g id="Group_2621" data-name="Group 2621" transform="translate(8 -5)">
      <g id="Group_1941" data-name="Group 1941" transform="translate(-8 5)">
        <path id="Path_11190" data-name="Path 11190" d="M81.515,76.587a1.431,1.431,0,0,0-1.432,1.431v7.656a31.227,31.227,0,0,0,0,61.927v7.556a1.431,1.431,0,0,0,2.863,0V78.018A1.43,1.43,0,0,0,81.515,76.587ZM55.769,116.636A28.39,28.39,0,0,1,80.083,88.58v56.114A28.39,28.39,0,0,1,55.769,116.636Z" transform="translate(-43.05 -76.587)" fill="url(#linear-gradient)"/>
        <path id="Path_11191" data-name="Path 11191" d="M111.675,116.015c0-.124.008-.246.008-.371A31.128,31.128,0,0,0,85.614,84.851a1.431,1.431,0,1,0-.472,2.822A28.347,28.347,0,0,1,98.579,93.8h-13.2a1.431,1.431,0,0,0,0,2.861h15.516a1.431,1.431,0,0,0,.541-.109,28.3,28.3,0,0,1,3.161,4.188H85.378a1.431,1.431,0,0,0,0,2.863h20.778a28.157,28.157,0,0,1,1.525,4.078h-22.3a1.431,1.431,0,0,0,0,2.863h22.989a28.767,28.767,0,0,1,.409,4.078h-23.4a1.431,1.431,0,0,0,0,2.863h23.361a28.442,28.442,0,0,1-.558,4.078h-22.8a1.431,1.431,0,0,0,0,2.863h22.037a28.014,28.014,0,0,1-1.678,4.078H85.378a1.431,1.431,0,0,0,0,2.863h18.687a28.232,28.232,0,0,1-3.289,4.079h-15.4a1.431,1.431,0,1,0,0,2.861H97.5a28.339,28.339,0,0,1-12.359,5.306,1.431,1.431,0,1,0,.472,2.822,31.123,31.123,0,0,0,26.059-30.331c0-.018.01-.032.01-.052S111.675,116.029,111.675,116.015Z" transform="translate(-39.313 -75.595)" fill="url(#linear-gradient)"/>
        <path id="Path_11192" data-name="Path 11192" d="M50.617,111.012H45.541a1.431,1.431,0,1,0,0,2.863h5.076a1.431,1.431,0,0,0,0-2.863Z" transform="translate(-44.109 -72.443)" fill="url(#linear-gradient)"/>
        <path id="Path_11193" data-name="Path 11193" d="M57.514,91.391a1.431,1.431,0,0,0,2.025-2.023l-3.59-3.59A1.431,1.431,0,0,0,53.924,87.8Z" transform="translate(-42.978 -75.531)" fill="url(#linear-gradient)"/>
        <path id="Path_11194" data-name="Path 11194" d="M57.514,133.43l-3.59,3.591a1.431,1.431,0,0,0,2.025,2.023l3.59-3.59a1.432,1.432,0,0,0-2.025-2.025Z" transform="translate(-42.978 -69.794)" fill="url(#linear-gradient)"/>
      </g>
    </g>
    <path id="Path_11503" data-name="Path 11503" d="M10.8-15.554H1.738V0H4.114V-6.8H9.68v-2H4.114v-4.708H10.8Zm10.626,3.432v6.446a3.569,3.569,0,0,1-3.542,3.894c-2.024,0-3.058-1.32-3.058-3.52v-6.82H12.474V-5.06C12.474-1.914,14.388.2,17.512.2A4.927,4.927,0,0,0,21.428-1.76V0H23.8V-12.122Zm7.92-4.158h-2.4V0h2.4Zm5.522,0h-2.4V0h2.4ZM51.634-3.432,52.866,0H55.4L49.7-15.554H46.97L41.272,0H43.78l1.254-3.432Zm-.66-1.98h-5.3l2.662-7.5Zm8.514-5.016v-1.694h-2.4V0h2.4V-6.2c0-2.354,1.276-3.542,3.7-3.542h.726V-12.3A5.2,5.2,0,0,0,59.488-10.428Zm8.8,0v-1.694h-2.4V0h2.4V-6.2c0-2.354,1.276-3.542,3.7-3.542h.726V-12.3A5.2,5.2,0,0,0,68.288-10.428Zm15.136-1.694v1.76a5.153,5.153,0,0,0-4.114-1.914c-3.454,0-5.918,2.574-5.918,6.2,0,3.608,2.442,6.226,5.9,6.226a5.244,5.244,0,0,0,4.136-1.892V0h2.354V-12.122ZM79.706-2A3.813,3.813,0,0,1,75.79-6.05a3.8,3.8,0,0,1,3.894-4.07,3.784,3.784,0,0,1,3.894,4.048A3.8,3.8,0,0,1,79.706-2Zm10.406-10.12h-2.64L92.554-.264l-2.2,5.1h2.662L99.9-12.122h-2.64L93.83-3.036Zm18.7,10.076V-15.554h-2.376V0h7.788V-2.046Zm12.342-10.23a6.013,6.013,0,0,0-6.292,6.226,6.008,6.008,0,0,0,6.292,6.2,5.972,5.972,0,0,0,6.248-6.2A5.978,5.978,0,0,0,121.154-12.276Zm0,2.156a3.831,3.831,0,0,1,3.916,4.07A3.825,3.825,0,0,1,121.154-2a3.842,3.842,0,0,1-3.938-4.048A3.848,3.848,0,0,1,121.154-10.12ZM135.1-12.276c-3.476,0-5.962,2.42-5.962,6.2,0,3.74,2.464,6.2,5.962,6.2a5.563,5.563,0,0,0,5.808-4.6h-2.486A3.113,3.113,0,0,1,135.124-2c-2.222,0-3.63-1.716-3.63-4.07,0-2.332,1.364-4.07,3.63-4.07a3.079,3.079,0,0,1,3.3,2.464h2.486A5.551,5.551,0,0,0,135.1-12.276Zm17.4.154v1.76a5.153,5.153,0,0,0-4.114-1.914c-3.454,0-5.918,2.574-5.918,6.2,0,3.608,2.442,6.226,5.9,6.226A5.244,5.244,0,0,0,152.5-1.738V0h2.354V-12.122ZM148.786-2A3.813,3.813,0,0,1,144.87-6.05a3.8,3.8,0,0,1,3.894-4.07,3.784,3.784,0,0,1,3.894,4.048A3.8,3.8,0,0,1,148.786-2ZM160.4-16.28H158V0h2.4ZM15,20.19c0-4.84-3.058-7.744-8.14-7.744H1.738V28H6.864C11.858,28,15,25.1,15,20.19ZM6.666,25.822H4.114V14.58H6.666c3.74,0,5.94,1.958,5.94,5.61C12.606,23.82,10.45,25.822,6.666,25.822ZM17.182,12.644a1.573,1.573,0,0,0,3.146,0,1.573,1.573,0,1,0-3.146,0Zm2.772,3.234h-2.4V28h2.4Zm17.82-.176a4.47,4.47,0,0,0-4.18,2.508A4.837,4.837,0,0,0,29.128,15.7a4.212,4.212,0,0,0-3.652,1.826v-1.65h-2.4V28h2.4V21.576c0-2.376,1.166-3.806,3.278-3.806,1.958,0,3.058,1.232,3.058,3.41V28h2.376V21.576c0-2.354,1.144-3.806,3.256-3.806,1.98,0,3.08,1.232,3.08,3.41V28H42.9V20.96A4.909,4.909,0,0,0,37.774,15.7Zm22.792,0a4.47,4.47,0,0,0-4.18,2.508A4.837,4.837,0,0,0,51.92,15.7a4.212,4.212,0,0,0-3.652,1.826v-1.65h-2.4V28h2.4V21.576c0-2.376,1.166-3.806,3.278-3.806C53.5,17.77,54.6,19,54.6,21.18V28H56.98V21.576c0-2.354,1.144-3.806,3.256-3.806,1.98,0,3.08,1.232,3.08,3.41V28h2.376V20.96A4.909,4.909,0,0,0,60.566,15.7Zm7.722-3.058a1.573,1.573,0,0,0,3.146,0,1.573,1.573,0,1,0-3.146,0Zm2.772,3.234h-2.4V28h2.4Zm9.416-.176a4.894,4.894,0,0,0-3.894,1.936v-1.76h-2.4V28h2.4V21.576c0-2.376,1.518-3.894,3.52-3.894,2.046,0,3.08,1.32,3.08,3.5V28h2.354V20.96C85.536,17.792,83.622,15.7,80.476,15.7Zm17.49.176v1.914a5.047,5.047,0,0,0-4.246-2.068c-3.5,0-5.874,2.64-5.874,6.16a5.773,5.773,0,0,0,5.9,6.094,5.064,5.064,0,0,0,4.224-2.068v1.8c0,1.628-1.3,3.058-3.52,3.058A3.4,3.4,0,0,1,90.9,28.55H88.528c.572,2.706,2.86,4.29,6.028,4.29,3.564,0,5.764-2.288,5.764-5.126V15.878ZM94.138,26a3.765,3.765,0,0,1-3.806-4.048,3.835,3.835,0,1,1,7.656,0A3.774,3.774,0,0,1,94.138,26Zm17.028-4.114h2.816c3.256,0,5.346-1.606,5.346-4.708,0-3.058-1.98-4.73-5.346-4.73H108.79V28h2.376Zm2.64-2.112h-2.64V14.536h2.64c1.958,0,3.124.726,3.124,2.618C116.93,18.958,115.786,19.772,113.806,19.772Zm10.1-2.2V15.878h-2.4V28h2.4V21.8c0-2.354,1.276-3.542,3.7-3.542h.726V15.7A5.2,5.2,0,0,0,123.9,17.572Zm11.352-1.848a6.013,6.013,0,0,0-6.292,6.226,6.27,6.27,0,0,0,12.54,0A5.978,5.978,0,0,0,135.256,15.724Zm0,2.156a3.831,3.831,0,0,1,3.916,4.07,3.929,3.929,0,1,1-7.854,0A3.848,3.848,0,0,1,135.256,17.88Z" transform="translate(88 34)" fill="#1d1d1f"/>
  </g>
</svg>
