<svg xmlns="http://www.w3.org/2000/svg" xmlns:xlink="http://www.w3.org/1999/xlink" width="200" height="175" viewBox="0 0 200 175">
  <defs>
    <linearGradient id="linear-gradient" x1="0.5" x2="0.5" y2="1" gradientUnits="objectBoundingBox">
      <stop offset="0" stop-color="#00e1d0"/>
      <stop offset="1" stop-color="#0698ab"/>
    </linearGradient>
    <clipPath id="clip-TV_topfeature_8k">
      <rect width="200" height="175"/>
    </clipPath>
  </defs>
  <g id="TV_topfeature_8k" clip-path="url(#clip-TV_topfeature_8k)">
    <g id="Group_2587" data-name="Group 2587" transform="translate(-422.524 53.813)">
      <path id="Path_11435" data-name="Path 11435" d="M531.373,31.659h6.967a1.107,1.107,0,0,0,1.107-1.1l.09-8.873h.093l11.447,9.727a1.453,1.453,0,0,0,.932.342h9.94a.5.5,0,0,0,.5-.5.493.493,0,0,0-.187-.39l-14.2-11.334,12.909-10.1a.5.5,0,0,0-.308-.892H551.41a1.823,1.823,0,0,0-1.2.446l-10.582,9.127h-.093l-.09-8.559a.956.956,0,0,0-.894-1.016h-.005a.8.8,0,0,0-.12,0H531.4a1.042,1.042,0,0,0-1.044,1.04V26.949l-.09,3.608A1.107,1.107,0,0,0,531.373,31.659Z" stroke="rgba(0,0,0,0)" stroke-width="1" fill="url(#linear-gradient)"/>
      <path id="Path_11436" data-name="Path 11436" d="M502.51,31.551h24.48a2.195,2.195,0,0,0,2.2-2.19v-7.39a2.746,2.746,0,0,0-1.77-2.564,2.747,2.747,0,0,0,1.77-2.564V10.731a2.194,2.194,0,0,0-2.194-2.195H502.516a2.194,2.194,0,0,0-2.2,2.193v6.114a2.749,2.749,0,0,0,1.769,2.564,2.748,2.748,0,0,0-1.77,2.564v7.388A2.2,2.2,0,0,0,502.51,31.551Zm6.357-17.711a1.568,1.568,0,0,1,1.623-1.5h8.331a1.752,1.752,0,0,1,1.814,1.5v1.943a1.756,1.756,0,0,1-1.814,1.5h-8.33a1.572,1.572,0,0,1-1.624-1.5Zm0,9.349a1.568,1.568,0,0,1,1.623-1.5H519.2a1.4,1.4,0,0,1,1.435,1.375v.125l-.005,2.882a1.407,1.407,0,0,1-1.311,1.5h-8.829a1.57,1.57,0,0,1-1.624-1.5Z" stroke="rgba(0,0,0,0)" stroke-width="1" fill="url(#linear-gradient)"/>
      <path id="Path_11437" data-name="Path 11437" d="M557.779,36.814l-5.813,10.117,4.274-.01V53.67A4.332,4.332,0,0,1,551.914,58h-62.95a4.334,4.334,0,0,1-4.326-4.328V15.626a4.331,4.331,0,0,1,4.326-4.326h7.1a1.557,1.557,0,1,0,0-3.113h-7.1a7.448,7.448,0,0,0-7.44,7.439V53.67a7.45,7.45,0,0,0,7.44,7.441H551.91a7.45,7.45,0,0,0,7.439-7.441V46.914l4.286-.01Z" stroke="rgba(0,0,0,0)" stroke-width="1" fill="url(#linear-gradient)"/>
    </g>
  </g>
</svg>
