<svg xmlns="http://www.w3.org/2000/svg" xmlns:xlink="http://www.w3.org/1999/xlink" width="190" height="100" viewBox="0 0 190 100">
  <defs>
    <linearGradient id="linear-gradient" x1="0.162" y1="0.694" x2="0.875" y2="0.254" gradientUnits="objectBoundingBox">
      <stop offset="0" stop-color="#0698ab"/>
      <stop offset="1" stop-color="#00e1d0"/>
    </linearGradient>
    <linearGradient id="linear-gradient-2" x1="0" y1="0.672" x2="0.717" y2="0" xlink:href="#linear-gradient"/>
    <clipPath id="clip-TV_topfeature_75">
      <rect width="190" height="100"/>
    </clipPath>
  </defs>
  <g id="TV_topfeature_75" clip-path="url(#clip-TV_topfeature_75)">
    <g id="Group_2394" data-name="Group 2394" transform="translate(-165.271 -970.384)">
      <path id="Subtraction_1" data-name="Subtraction 1" d="M5876.635,10448.115h-93.364v-53.73h93.364v53.73Zm-91.544-51.775v50.022h89.829v-50.022Z" transform="translate(-5576 -9409)" fill="url(#linear-gradient)"/>
      <g id="Path_11434" data-name="Path 11434" transform="translate(210.948 988.696)" fill="none" stroke-dasharray="3 2">
        <path d="M0,0H85.58V47.064H0Z" stroke="none"/>
        <path d="M 5 3.814697265625e-06 L 8 3.814697265625e-06 L 8 1.000003814697266 L 5 1.000003814697266 L 5 3.814697265625e-06 Z M 10 3.814697265625e-06 L 13 3.814697265625e-06 L 13 1.000003814697266 L 10 1.000003814697266 L 10 3.814697265625e-06 Z M 15 3.814697265625e-06 L 18 3.814697265625e-06 L 18 1.000003814697266 L 15 1.000003814697266 L 15 3.814697265625e-06 Z M 20 3.814697265625e-06 L 23 3.814697265625e-06 L 23 1.000003814697266 L 20 1.000003814697266 L 20 3.814697265625e-06 Z M 25 3.814697265625e-06 L 28 3.814697265625e-06 L 28 1.000003814697266 L 25 1.000003814697266 L 25 3.814697265625e-06 Z M 30 3.814697265625e-06 L 33 3.814697265625e-06 L 33 1.000003814697266 L 30 1.000003814697266 L 30 3.814697265625e-06 Z M 35 3.814697265625e-06 L 38 3.814697265625e-06 L 38 1.000003814697266 L 35 1.000003814697266 L 35 3.814697265625e-06 Z M 40 3.814697265625e-06 L 43 3.814697265625e-06 L 43 1.000003814697266 L 40 1.000003814697266 L 40 3.814697265625e-06 Z M 45 3.814697265625e-06 L 48 3.814697265625e-06 L 48 1.000003814697266 L 45 1.000003814697266 L 45 3.814697265625e-06 Z M 50 3.814697265625e-06 L 53 3.814697265625e-06 L 53 1.000003814697266 L 50 1.000003814697266 L 50 3.814697265625e-06 Z M 55 3.814697265625e-06 L 58 3.814697265625e-06 L 58 1.000003814697266 L 55 1.000003814697266 L 55 3.814697265625e-06 Z M 60 3.814697265625e-06 L 63 3.814697265625e-06 L 63 1.000003814697266 L 60 1.000003814697266 L 60 3.814697265625e-06 Z M 65 3.814697265625e-06 L 68 3.814697265625e-06 L 68 1.000003814697266 L 65 1.000003814697266 L 65 3.814697265625e-06 Z M 70 3.814697265625e-06 L 73 3.814697265625e-06 L 73 1.000003814697266 L 70 1.000003814697266 L 70 3.814697265625e-06 Z M 75 3.814697265625e-06 L 78 3.814697265625e-06 L 78 1.000003814697266 L 75 1.000003814697266 L 75 3.814697265625e-06 Z M 80 3.814697265625e-06 L 83 3.814697265625e-06 L 83 1.000003814697266 L 80 1.000003814697266 L 80 3.814697265625e-06 Z M 84.58018493652344 3.814697265625e-06 L 85.58018493652344 3.814697265625e-06 L 85.58018493652344 1.000003814697266 L 85.58018493652344 1.000003814697266 C 85.58018493652344 1.6661376953125 85.58018493652344 2.419815063476562 85.58018493652344 2.419815063476562 L 84.58018493652344 2.419815063476562 L 84.58018493652344 3.814697265625e-06 Z M 84.58018493652344 4.419815063476562 L 85.58018493652344 4.419815063476562 C 85.58018493652344 4.419815063476562 85.58018493652344 7.419815063476562 85.58018493652344 7.419815063476562 L 84.58018493652344 7.419815063476562 L 84.58018493652344 4.419815063476562 Z M 84.58018493652344 9.419815063476562 L 85.58018493652344 9.419815063476562 C 85.58018493652344 9.419815063476562 85.58018493652344 12.41981506347656 85.58018493652344 12.41981506347656 L 84.58018493652344 12.41981506347656 L 84.58018493652344 9.419815063476562 Z M 84.58018493652344 14.41981506347656 L 85.58018493652344 14.41981506347656 C 85.58018493652344 14.41981506347656 85.58018493652344 17.41981506347656 85.58018493652344 17.41981506347656 L 84.58018493652344 17.41981506347656 L 84.58018493652344 14.41981506347656 Z M 84.58018493652344 19.41981506347656 L 85.58018493652344 19.41981506347656 C 85.58018493652344 19.41981506347656 85.58018493652344 22.41981506347656 85.58018493652344 22.41981506347656 L 84.58018493652344 22.41981506347656 L 84.58018493652344 19.41981506347656 Z M 84.58018493652344 24.41981506347656 L 85.58018493652344 24.41981506347656 C 85.58018493652344 24.41981506347656 85.58018493652344 27.41981506347656 85.58018493652344 27.41981506347656 L 84.58018493652344 27.41981506347656 L 84.58018493652344 24.41981506347656 Z M 84.58018493652344 29.41981506347656 L 85.58018493652344 29.41981506347656 C 85.58018493652344 29.41981506347656 85.58018493652344 32.41981506347656 85.58018493652344 32.41981506347656 L 84.58018493652344 32.41981506347656 L 84.58018493652344 29.41981506347656 Z M 84.58018493652344 34.41981506347656 L 85.58018493652344 34.41981506347656 C 85.58018493652344 34.41981506347656 85.58018493652344 37.41981506347656 85.58018493652344 37.41981506347656 L 84.58018493652344 37.41981506347656 L 84.58018493652344 34.41981506347656 Z M 84.58018493652344 39.41981506347656 L 85.58018493652344 39.41981506347656 C 85.58018493652344 39.41981506347656 85.58018493652344 42.41981506347656 85.58018493652344 42.41981506347656 L 84.58018493652344 42.41981506347656 L 84.58018493652344 39.41981506347656 Z M 84.58018493652344 44.41981506347656 L 85.58018493652344 44.41981506347656 C 85.58018493652344 44.41981506347656 85.58018493652344 47.063720703125 85.58018493652344 47.063720703125 L 84.58018493652344 47.063720703125 L 84.58018493652344 47.063720703125 L 84.58018493652344 47.063720703125 L 84.58018493652344 47.063720703125 L 84.58018493652344 44.41981506347656 Z M 80.22409057617188 46.063720703125 L 83.22409057617188 46.063720703125 L 83.22409057617188 47.063720703125 C 83.22409057617188 47.063720703125 80.22409057617188 47.063720703125 80.22409057617188 47.063720703125 L 80.22409057617188 46.063720703125 Z M 75.22409057617188 46.063720703125 L 78.22409057617188 46.063720703125 L 78.22409057617188 47.063720703125 C 78.22409057617188 47.063720703125 75.22409057617188 47.063720703125 75.22409057617188 47.063720703125 L 75.22409057617188 46.063720703125 Z M 70.22409057617188 46.063720703125 L 73.22409057617188 46.063720703125 L 73.22409057617188 47.063720703125 C 73.22409057617188 47.063720703125 70.22409057617188 47.063720703125 70.22409057617188 47.063720703125 L 70.22409057617188 46.063720703125 Z M 65.22409057617188 46.063720703125 L 68.22409057617188 46.063720703125 L 68.22409057617188 47.063720703125 C 68.22409057617188 47.063720703125 65.22409057617188 47.063720703125 65.22409057617188 47.063720703125 L 65.22409057617188 46.063720703125 Z M 60.22409057617188 46.063720703125 L 63.22409057617188 46.063720703125 L 63.22409057617188 47.063720703125 C 63.22409057617188 47.063720703125 60.22409057617188 47.063720703125 60.22409057617188 47.063720703125 L 60.22409057617188 46.063720703125 Z M 55.22409057617188 46.063720703125 L 58.22409057617188 46.063720703125 L 58.22409057617188 47.063720703125 C 58.22409057617188 47.063720703125 55.22409057617188 47.063720703125 55.22409057617188 47.063720703125 L 55.22409057617188 46.063720703125 Z M 50.22409057617188 46.063720703125 L 53.22409057617188 46.063720703125 L 53.22409057617188 47.063720703125 C 53.22409057617188 47.063720703125 50.22409057617188 47.063720703125 50.22409057617188 47.063720703125 L 50.22409057617188 46.063720703125 Z M 45.22409057617188 46.063720703125 L 48.22409057617188 46.063720703125 L 48.22409057617188 47.063720703125 C 48.22409057617188 47.063720703125 45.22409057617188 47.063720703125 45.22409057617188 47.063720703125 L 45.22409057617188 46.063720703125 Z M 40.22409057617188 46.063720703125 L 43.22409057617188 46.063720703125 L 43.22409057617188 47.063720703125 C 43.22409057617188 47.063720703125 40.22409057617188 47.063720703125 40.22409057617188 47.063720703125 L 40.22409057617188 46.063720703125 Z M 35.22409057617188 46.063720703125 L 38.22409057617188 46.063720703125 L 38.22409057617188 47.063720703125 C 38.22409057617188 47.063720703125 35.22409057617188 47.063720703125 35.22409057617188 47.063720703125 L 35.22409057617188 46.063720703125 Z M 30.22409057617188 46.063720703125 L 33.22409057617188 46.063720703125 L 33.22409057617188 47.063720703125 C 33.22409057617188 47.063720703125 30.22409057617188 47.063720703125 30.22409057617188 47.063720703125 L 30.22409057617188 46.063720703125 Z M 25.22409057617188 46.063720703125 L 28.22409057617188 46.063720703125 L 28.22409057617188 47.063720703125 C 28.22409057617188 47.063720703125 25.22409057617188 47.063720703125 25.22409057617188 47.063720703125 L 25.22409057617188 46.063720703125 Z M 20.22409057617188 46.063720703125 L 23.22409057617188 46.063720703125 L 23.22409057617188 47.063720703125 C 23.22409057617188 47.063720703125 20.22409057617188 47.063720703125 20.22409057617188 47.063720703125 L 20.22409057617188 46.063720703125 Z M 15.22409057617188 46.063720703125 L 18.22409057617188 46.063720703125 L 18.22409057617188 47.063720703125 C 18.22409057617188 47.063720703125 15.22409057617188 47.063720703125 15.22409057617188 47.063720703125 L 15.22409057617188 46.063720703125 Z M 10.22409057617188 46.063720703125 L 13.22409057617188 46.063720703125 L 13.22409057617188 47.063720703125 C 13.22409057617188 47.063720703125 10.22409057617188 47.063720703125 10.22409057617188 47.063720703125 L 10.22409057617188 46.063720703125 Z M 5.224090576171875 46.063720703125 L 8.224090576171875 46.063720703125 L 8.224090576171875 47.063720703125 C 8.224090576171875 47.063720703125 5.224090576171875 47.063720703125 5.224090576171875 47.063720703125 L 5.224090576171875 46.063720703125 Z M 0.224090576171875 46.063720703125 L 3.224090576171875 46.063720703125 L 3.224090576171875 47.063720703125 C 3.224090576171875 47.063720703125 0.224090576171875 47.063720703125 0.224090576171875 47.063720703125 L 0.224090576171875 46.063720703125 Z M 0 42.28781509399414 L 1 42.28781509399414 L 1 45.28781509399414 L 0 45.28781509399414 L 0 42.28781509399414 Z M 0 37.28781509399414 L 1 37.28781509399414 L 1 40.28781509399414 L 0 40.28781509399414 L 0 37.28781509399414 Z M 0 32.28781509399414 L 1 32.28781509399414 L 1 35.28781509399414 L 0 35.28781509399414 L 0 32.28781509399414 Z M 0 27.28781509399414 L 1 27.28781509399414 L 1 30.28781509399414 L 0 30.28781509399414 L 0 27.28781509399414 Z M 0 22.28781509399414 L 1 22.28781509399414 L 1 25.28781509399414 L 0 25.28781509399414 L 0 22.28781509399414 Z M 0 17.28781509399414 L 1 17.28781509399414 L 1 20.28781509399414 L 0 20.28781509399414 L 0 17.28781509399414 Z M 0 12.28781509399414 L 1 12.28781509399414 L 1 15.28781509399414 L 0 15.28781509399414 L 0 12.28781509399414 Z M 0 7.287815093994141 L 1 7.287815093994141 L 1 10.28781509399414 L 0 10.28781509399414 L 0 7.287815093994141 Z M 0 2.287815093994141 L 1 2.287815093994141 L 1 5.287815093994141 L 0 5.287815093994141 L 0 2.287815093994141 Z M 0 3.814697265625e-06 L 3 3.814697265625e-06 L 3 1.000003814697266 L 0 1.000003814697266 L 0 3.814697265625e-06 Z" stroke="none" fill="#00a09c"/>
      </g>
      <path id="Path_10992" data-name="Path 10992" d="M51.7-28.426l2.6-7.811h2.929l-3.906,7.811Zm5.858,0,2.6-7.811h2.929l-3.906,7.811Z" transform="translate(218.354 1037.854)" fill="url(#linear-gradient-2)"/>
      <g id="Rectangle_1310" data-name="Rectangle 1310" transform="translate(239.862 1047.552)" fill="none" stroke="#00a09c" stroke-width="1">
        <rect width="28.747" height="8.624" rx="4.312" stroke="none"/>
        <rect x="0.5" y="0.5" width="27.747" height="7.624" rx="3.812" fill="none"/>
      </g>
      <g id="Rectangle_1311" data-name="Rectangle 1311" transform="translate(306.395 1012.813)" fill="none" stroke="#00a09c" stroke-width="1">
        <rect width="7.474" height="26.447" rx="3.737" stroke="none"/>
        <rect x="0.5" y="0.5" width="6.474" height="25.447" rx="3.237" fill="none"/>
      </g>
      <text id="_75" data-name="75" transform="translate(239.297 1021.333)" fill="#24c5bf" stroke="rgba(0,0,0,0)" stroke-width="1" font-size="26" font-family="HisenseSansAlfabet-Regular, Hisense Sans Alfabet" letter-spacing="-0.01em"><tspan x="0" y="0">75</tspan></text>
    </g>
  </g>
</svg>
