<svg xmlns="http://www.w3.org/2000/svg" xmlns:xlink="http://www.w3.org/1999/xlink" width="60" height="60" viewBox="0 0 60 60">
  <defs>
    <linearGradient id="linear-gradient" x1="0.5" y1="1" x2="0.5" gradientUnits="objectBoundingBox">
      <stop offset="0" stop-color="#00aaa6"/>
      <stop offset="0.877" stop-color="#39d5ce"/>
      <stop offset="1" stop-color="#6debe6"/>
    </linearGradient>
    <clipPath id="clip-Soundbar_icon_movie_10">
      <rect width="60" height="60"/>
    </clipPath>
  </defs>
  <g id="Soundbar_icon_movie_10" data-name="Soundbar_icon_movie – 10" clip-path="url(#clip-Soundbar_icon_movie_10)">
    <g id="Group_1946" data-name="Group 1946" transform="translate(-333.176 -468.412)">
      <path id="Path_11495" data-name="Path 11495" d="M363.148,468.412h-.074a29.836,29.836,0,1,0,25.664,14.633c-.153-.257-.3-.5-.465-.76l-.416-.643L385.8,482.95l.412.651c.144.227.286.46.424.691a27.422,27.422,0,1,1-23.543-13.44h.031a26.985,26.985,0,0,1,15.245,4.681l.637.431,1.368-2.021-.637-.43A29.4,29.4,0,0,0,363.148,468.412Z" transform="translate(0 0)" fill="url(#linear-gradient)"/>
      <path id="Path_11496" data-name="Path 11496" d="M361.792,506.823l-15.252-14.258-1.667,1.782,17.43,16.289,28.745-39.213-1.971-1.442-27.118,37Z" transform="translate(0.199 0.027)" fill="url(#linear-gradient)"/>
    </g>
  </g>
</svg>
