<svg xmlns="http://www.w3.org/2000/svg" xmlns:xlink="http://www.w3.org/1999/xlink" width="190" height="100" viewBox="0 0 190 100">
  <defs>
    <linearGradient id="linear-gradient" x1="1.416" y1="3.813" x2="3.638" y2="1.419" gradientUnits="objectBoundingBox">
      <stop offset="0" stop-color="#0698ab"/>
      <stop offset="1" stop-color="#00e1d0"/>
    </linearGradient>
    <clipPath id="clip-TV_topfeature_8kai">
      <rect width="190" height="100"/>
    </clipPath>
  </defs>
  <g id="TV_topfeature_8kai" clip-path="url(#clip-TV_topfeature_8kai)">
    <g id="Group_2393" data-name="Group 2393" transform="translate(6.637 -69.046)">
      <g id="Group_1925" data-name="Group 1925" transform="translate(52.363 82.046)">
        <path id="Path_11178" data-name="Path 11178" d="M119.562,82.046H87.227a1.692,1.692,0,1,0,0,3.384h32.335a4.71,4.71,0,0,1,4.7,4.7v32.335a1.692,1.692,0,1,0,3.385,0V90.135A8.1,8.1,0,0,0,119.562,82.046Z" transform="translate(-56.574 -82.046)" fill="url(#linear-gradient)"/>
        <path id="Path_11179" data-name="Path 11179" d="M68.12,142.92a1.688,1.688,0,0,0,2.243-.833l2.645-5.767h5.064a1.692,1.692,0,0,0,0-3.385H74.561l2.5-5.444L83.8,142.14a1.692,1.692,0,1,0,3.073-1.414l-8.28-18a1.691,1.691,0,0,0-1.537-.985h0a1.689,1.689,0,0,0-1.537.987l-8.23,17.947A1.691,1.691,0,0,0,68.12,142.92Z" transform="translate(-54.238 -87.085)" fill="url(#linear-gradient)"/>
        <path id="Path_11180" data-name="Path 11180" d="M95.513,141.276V122.2a1.692,1.692,0,0,0-3.385,0v19.078a1.692,1.692,0,0,0,3.385,0Z" transform="translate(-57.411 -86.928)" fill="#0bcdc7"/>
        <path id="Path_11181" data-name="Path 11181" d="M83.6,153.948H60.453a4.709,4.709,0,0,1-4.7-4.7V116.909a1.692,1.692,0,0,0-3.385,0v32.335a8.1,8.1,0,0,0,8.09,8.088H83.6l.01,4.651,10.971-6.367-11-6.318Z" transform="translate(-52.363 -86.257)" fill="url(#linear-gradient)"/>
        <rect id="Rectangle_1408" data-name="Rectangle 1408" width="5.238" height="5.237" transform="translate(45.467 45.892)" fill="url(#linear-gradient)"/>
        <rect id="Rectangle_1409" data-name="Rectangle 1409" width="5.237" height="5.237" transform="translate(52.136 45.892)" fill="url(#linear-gradient)"/>
        <rect id="Rectangle_1410" data-name="Rectangle 1410" width="5.238" height="5.237" transform="translate(58.805 45.892)" fill="url(#linear-gradient)"/>
        <rect id="Rectangle_1411" data-name="Rectangle 1411" width="5.237" height="5.237" transform="translate(65.473 45.892)" fill="url(#linear-gradient)"/>
        <rect id="Rectangle_1412" data-name="Rectangle 1412" width="5.237" height="5.238" transform="translate(65.473 52.56)" fill="url(#linear-gradient)"/>
        <rect id="Rectangle_1413" data-name="Rectangle 1413" width="5.237" height="5.238" transform="translate(65.473 59.229)" fill="url(#linear-gradient)"/>
        <rect id="Rectangle_1414" data-name="Rectangle 1414" width="5.237" height="5.238" transform="translate(65.473 65.898)" fill="url(#linear-gradient)"/>
        <rect id="Rectangle_1415" data-name="Rectangle 1415" width="5.238" height="5.238" transform="translate(58.805 52.56)" fill="url(#linear-gradient)"/>
        <rect id="Rectangle_1416" data-name="Rectangle 1416" width="5.238" height="5.238" transform="translate(58.805 59.229)" fill="url(#linear-gradient)"/>
        <rect id="Rectangle_1417" data-name="Rectangle 1417" width="5.238" height="5.238" transform="translate(58.805 65.898)" fill="url(#linear-gradient)"/>
        <rect id="Rectangle_1418" data-name="Rectangle 1418" width="5.237" height="5.238" transform="translate(52.136 52.56)" fill="url(#linear-gradient)"/>
        <rect id="Rectangle_1419" data-name="Rectangle 1419" width="5.237" height="5.238" transform="translate(52.136 59.229)" fill="url(#linear-gradient)"/>
        <rect id="Rectangle_1420" data-name="Rectangle 1420" width="5.237" height="5.238" transform="translate(52.136 65.898)" fill="url(#linear-gradient)"/>
        <rect id="Rectangle_1421" data-name="Rectangle 1421" width="5.238" height="5.238" transform="translate(45.467 52.56)" fill="url(#linear-gradient)"/>
        <rect id="Rectangle_1422" data-name="Rectangle 1422" width="5.238" height="5.238" transform="translate(45.467 59.229)" fill="url(#linear-gradient)"/>
        <rect id="Rectangle_1423" data-name="Rectangle 1423" width="5.238" height="5.238" transform="translate(45.467 65.898)" fill="url(#linear-gradient)"/>
        <rect id="Rectangle_1424" data-name="Rectangle 1424" width="11.906" height="11.906" transform="translate(0.255 0.011)" fill="url(#linear-gradient)"/>
        <rect id="Rectangle_1425" data-name="Rectangle 1425" width="11.906" height="11.906" transform="translate(13.593 0.011)" fill="url(#linear-gradient)"/>
        <rect id="Rectangle_1426" data-name="Rectangle 1426" width="11.906" height="11.906" transform="translate(0.255 13.348)" fill="url(#linear-gradient)"/>
        <rect id="Rectangle_1427" data-name="Rectangle 1427" width="11.906" height="11.906" transform="translate(13.593 13.348)" fill="url(#linear-gradient)"/>
      </g>
      <text id="_8K" data-name="8K" transform="translate(104.023 105.205)" fill="#19bdb8" font-size="16" font-family="Helvetica"><tspan x="-9.785" y="0">8K</tspan></text>
    </g>
  </g>
</svg>
