<svg xmlns="http://www.w3.org/2000/svg" width="110" height="77" viewBox="0 0 110 77">
  <defs>
    <style>
      .cls-1 {
        fill: #d4d4d4;
        fill-rule: evenodd;
      }
    </style>
  </defs>
  <path id="picture" class="cls-1" d="M1177,738H1071a2,2,0,0,1-2-2V663a2,2,0,0,1,2-2h106a2,2,0,0,1,2,2v73A2,2,0,0,1,1177,738Zm-106-2h80.3l-51.22-51.218L1071,713.865V736Zm106-73H1071v48.036l27.67-27.669a2,2,0,0,1,2.83,0l37.58,37.586,18.59-18.586a2,2,0,0,1,2.83,0l16.5,16.619V663Zm0,58.7-17.92-17.916-18.52,18.651L1154.13,736H1177V721.7ZM1147,693a9,9,0,1,1,9-9A9,9,0,0,1,1147,693Zm0-16a7,7,0,1,0,7,7A7,7,0,0,0,1147,677Z" transform="translate(-1069 -661)"/>
</svg>
